<svg width="48" height="48" viewBox="0 0 48 48" fill="none" xmlns="http://www.w3.org/2000/svg">
<g clip-path="url(#clip0_85_65)">
<path d="M18.2275 0.111775C25.3386 -0.165722 32.4365 0.072328 39.5212 0.838747C43.3939 1.24838 46.7114 4.49912 47.1476 8.34445C47.5177 11.6215 47.7557 14.9118 47.8879 18.2021C48.1655 25.3113 47.9277 32.4073 47.1743 39.4901C46.7645 43.2562 43.8434 46.4671 40.116 47.0617C37.2214 47.5374 34.2739 47.6435 31.3396 47.8284C30.1104 47.8945 28.8807 47.8546 27.6515 48H20.25C20.065 47.9075 19.8533 47.9341 19.6551 47.9341C15.9278 47.8416 12.2132 47.5643 8.49904 47.1678C4.78491 46.7714 1.56012 43.8374 0.952113 40.1507C0.476309 37.2437 0.370233 34.2835 0.185191 31.35C0.105916 30.1476 0.158601 28.9451 0 27.7559V20.1576C0.0264353 19.9727 0.0664282 19.7876 0.0664282 19.6027C0.172169 15.8632 0.436332 12.1501 0.832845 8.43703C1.22942 4.61812 4.50757 1.27468 8.32744 0.851827C11.6186 0.481837 14.9231 0.243916 18.2275 0.111775ZM30.7921 11.4858C24.8704 11.0892 18.9624 11.2023 13.0689 11.7972C11.7089 11.9388 10.4479 12.3637 9.35708 13.1993C8.49291 13.8508 7.81332 14.6584 7.60081 15.7631C6.63744 20.8476 6.62291 25.9324 7.48708 31.0311C7.69959 32.2915 8.28086 33.2828 9.27252 34.0476C10.2217 34.7982 11.2981 35.2799 12.5023 35.4215C16.2564 35.8748 20.0391 36.0307 23.1274 36.059C27.4199 36.059 31.0184 35.8607 34.6026 35.5066C36.2743 35.3366 37.7621 34.756 38.9379 33.538C39.4762 32.9857 39.8871 32.3482 40.043 31.5834C41.0063 26.4847 41.0204 21.3715 40.1562 16.2587C39.9154 14.8707 39.2212 13.8511 38.1021 13.058C37.3796 12.5481 36.572 12.1795 35.6936 11.9954C34.0787 11.6555 32.4354 11.599 30.7921 11.4858ZM19.8127 17.1793C23.3544 19.3604 26.811 21.4851 30.3669 23.6662C26.8252 25.8331 23.3543 27.9716 19.8127 30.1386V17.1793Z" fill="#FD7E11"/>
</g>
<defs>
<clipPath id="clip0_85_65">
<rect width="48" height="48" fill="white"/>
</clipPath>
</defs>
</svg>
