<svg width="48" height="48" viewBox="0 0 48 48" fill="none" xmlns="http://www.w3.org/2000/svg">
<g clip-path="url(#clip0_84_44)">
<path d="M47.8937 18.215C47.739 14.917 47.5328 11.619 47.1719 8.37254C46.7595 4.5077 43.4085 1.26124 39.5419 0.848987C32.4275 0.0760197 25.313 -0.181636 18.1986 0.127551C14.8991 0.230613 11.5997 0.488269 8.3002 0.848987C4.4852 1.26124 1.18574 4.61076 0.824864 8.42407C0.412432 12.1343 0.154662 15.8446 0.051554 19.6063C0.051554 19.8125 0 19.967 0 20.1732V27.7483C0.154662 28.9335 0.103108 30.1187 0.206216 31.3554C0.412432 34.2927 0.51554 37.23 0.979526 40.1673C1.59817 43.8775 4.79452 46.8148 8.50641 47.1755C12.2183 47.5877 15.9302 47.8454 19.6421 47.9485C19.8483 47.9485 20.0545 47.8969 20.2607 48H27.6845C28.9218 47.8454 30.1591 47.8969 31.3964 47.8454C34.335 47.6393 37.2736 47.5362 40.1606 47.0724C43.8725 46.4541 46.811 43.2591 47.2235 39.4974C47.9452 32.4376 48.1514 25.3263 47.8937 18.215ZM37.1704 20.8431C34.4896 20.7915 32.015 19.967 29.8498 18.3696C29.7982 18.3181 29.6951 18.2665 29.6436 18.215C29.6436 18.215 29.592 18.215 29.5404 18.215C29.5404 18.3181 29.5404 18.4211 29.5404 18.5242C29.5404 22.1314 29.5404 25.687 29.592 29.2942C29.592 31.2008 29.1796 32.9529 28.0969 34.5504C25.9832 37.6938 23.0446 39.2397 19.2296 39.0336C15.0022 38.8275 11.4965 35.9417 10.4139 31.9223C9.07351 26.9238 12.0636 21.6676 17.0128 20.2247C18.3017 19.864 19.5905 19.7094 20.9309 19.864C21.2403 19.9155 21.3434 19.967 21.3434 20.2762C21.3434 21.7706 21.3434 23.2135 21.3434 24.7079C21.3434 24.9656 21.3434 25.0171 21.034 24.9656C18.0439 24.1926 15.2084 26.5115 15.26 29.6034C15.3115 31.9223 17.1675 33.8289 19.539 33.9835C21.8073 34.1896 23.9211 32.5407 24.385 30.3248C24.4366 29.9126 24.4882 29.5518 24.4882 29.1396C24.4882 22.2344 24.4882 15.2777 24.4882 8.37254C24.4882 8.21794 24.4882 8.06335 24.4882 7.90876C26.1894 7.90876 27.8392 7.90876 29.5404 7.90876C29.6436 11.8251 32.2213 14.8655 36.0878 15.5869C36.4487 15.6384 36.8096 15.69 37.222 15.69C37.3767 15.69 37.4282 15.7415 37.4282 15.9476C37.4282 17.4936 37.4282 18.988 37.4282 20.5339C37.4282 20.8431 37.3251 20.8431 37.1704 20.8431Z" fill="#FD7E11"/>
</g>
<defs>
<clipPath id="clip0_84_44">
<rect width="48" height="48" fill="white"/>
</clipPath>
</defs>
</svg>
