<svg width="48" height="48" viewBox="0 0 48 48" fill="none" xmlns="http://www.w3.org/2000/svg">
<g clip-path="url(#clip0_85_79)">
<path fill-rule="evenodd" clip-rule="evenodd" d="M17.7666 12.5674C23.7376 8.83727 31.6778 10.608 35.4258 16.6143C39.1739 22.5581 37.3949 30.3992 31.3604 34.1934C29.3276 35.4578 26.9773 36.1533 24.5635 36.1533C22.2766 36.1533 19.9897 35.5211 18.0205 34.3828L17.5762 34.1299L12.748 35.3945L14.0186 30.6523L13.7012 30.1465C9.95349 24.2026 11.7319 16.298 17.7666 12.5674ZM19.1738 17.0068H18.3975C18.0097 17.007 17.6218 17.1899 17.3633 17.4941C16.4582 18.2858 15.9413 19.4436 16.0059 20.6006C16.0061 22.4269 17.4273 24.1929 17.6221 24.4375C17.8177 24.6836 20.4039 28.3965 24.3467 29.9795C25.0578 30.2839 25.8336 30.5279 26.6094 30.7715C27.3853 31.0151 28.2914 31.0753 29.0674 30.8926C29.8434 30.7705 31.3944 29.9793 31.7178 29.127C31.9763 28.5789 32.0412 27.9693 31.9766 27.3604C31.8472 27.1779 31.5887 27.0555 31.2012 26.873C30.8129 26.6902 28.8735 25.7773 28.5498 25.6553C28.2267 25.5335 27.9031 25.473 27.6445 25.8379C27.386 26.2032 26.6104 27.0558 26.416 27.2998C26.222 27.5434 25.9631 27.6045 25.5752 27.4219C24.4115 26.9956 23.377 26.3863 22.4072 25.5947C21.5667 24.8639 20.7899 24.0105 20.208 23.0361C20.0146 22.6712 20.2085 22.4882 20.4023 22.3057C20.5962 22.123 20.7905 21.8793 20.9844 21.6357C21.1136 21.4531 21.2428 21.2699 21.3721 21.0264C21.5011 20.8437 21.4369 20.5999 21.3076 20.3564C21.2416 20.1708 20.4022 18.3466 20.0791 17.6162C19.7559 16.8858 19.4324 17.0068 19.1738 17.0068Z" fill="#FD7E11"/>
<path fill-rule="evenodd" clip-rule="evenodd" d="M18.1982 0.127932C25.3127 -0.181255 32.4275 0.0756677 39.542 0.848635C43.4084 1.26088 46.7592 4.50745 47.1719 8.37207C47.5327 11.6185 47.7389 14.9169 47.8936 18.2148C48.1513 25.326 47.9454 32.4374 47.2236 39.4971C46.8112 43.2588 43.872 46.4539 40.1602 47.0723C37.2733 47.536 34.3349 47.6396 31.3965 47.8457C30.1592 47.8972 28.9218 47.8454 27.6846 48H20.2607C20.0545 47.8969 19.8478 47.9482 19.6416 47.9482C15.93 47.8452 12.2184 47.588 8.50684 47.1758C4.79495 46.8151 1.59814 43.8772 0.979492 40.167C0.515544 37.2298 0.412263 34.2926 0.206055 31.3555C0.102947 30.1187 0.154662 28.9333 0 27.748V20.1729C5.33711e-05 19.9669 0.0517387 19.8124 0.0517578 19.6064C0.154866 15.8447 0.412763 12.1341 0.825195 8.42383C1.18619 4.61075 4.48505 1.26104 8.2998 0.848635C11.5991 0.487929 14.8989 0.231001 18.1982 0.127932ZM35.4902 12.5049C29.4554 6.49807 19.736 6.49809 13.7012 12.5049C8.68282 17.3737 7.73001 25.0252 11.2236 31.0322L9 38.999L17.1943 36.8496C19.4812 38.051 21.959 38.7461 24.5635 38.7461C33.0756 38.7461 39.9997 31.9173 40 23.4443C39.9999 19.3345 38.4121 15.4135 35.4902 12.5049Z" fill="#FD7E11"/>
</g>
<defs>
<clipPath id="clip0_85_79">
<rect width="48" height="48" fill="white"/>
</clipPath>
</defs>
</svg>
