<svg width="48" height="48" viewBox="0 0 48 48" fill="none" xmlns="http://www.w3.org/2000/svg">
<g clip-path="url(#clip0_85_57)">
<path fill-rule="evenodd" clip-rule="evenodd" d="M18.1982 0.127932C25.3127 -0.181255 32.4275 0.0756677 39.542 0.848635C43.4084 1.26088 46.7592 4.50745 47.1719 8.37207C47.5327 11.6185 47.7389 14.9169 47.8936 18.2148C48.1513 25.326 47.9454 32.4374 47.2236 39.4971C46.8112 43.2588 43.872 46.4539 40.1602 47.0723C37.2733 47.536 34.3349 47.6396 31.3965 47.8457C30.1592 47.8972 28.9218 47.8454 27.6846 48H20.2607C20.0545 47.8969 19.8478 47.9482 19.6416 47.9482C15.93 47.8452 12.2184 47.588 8.50684 47.1758C4.79495 46.8151 1.59814 43.8772 0.979492 40.167C0.515544 37.2298 0.412263 34.2926 0.206055 31.3555C0.102947 30.1187 0.154662 28.9333 0 27.748V20.1729C5.33711e-05 19.9669 0.0517387 19.8124 0.0517578 19.6064C0.154866 15.8447 0.412763 12.1341 0.825195 8.42383C1.18619 4.61075 4.48505 1.26104 8.2998 0.848635C11.5991 0.487929 14.8989 0.231001 18.1982 0.127932ZM24.5039 8C15.9425 8 9.00022 14.9386 9 23.4961C9 29.84 12.8205 35.2918 18.2812 37.6924C18.2397 36.6132 18.274 35.3126 18.5508 34.1367C18.8484 32.8776 20.5449 25.6895 20.5449 25.6895C20.5421 25.6839 20.0459 24.6958 20.0459 23.2402C20.046 20.9436 21.3751 19.2286 23.0361 19.2285C24.448 19.2285 25.126 20.2867 25.126 21.5527C25.1259 22.9709 24.2196 25.0882 23.7559 27.0527C23.3686 28.6991 24.5797 30.0342 26.2061 30.0342C29.1406 30.0342 31.12 26.2639 31.1201 21.7949C31.1201 18.3982 28.8294 15.8595 24.6699 15.8594C19.9704 15.8594 17.0352 19.3666 17.0352 23.2822C17.0352 24.6312 17.4366 25.586 18.0596 26.3193C18.3433 26.6583 18.385 26.7964 18.2812 27.1836C18.2052 27.4671 18.0391 28.1517 17.9629 28.4287C17.859 28.8231 17.5406 28.9617 17.1875 28.8164C15.0214 27.9308 14.0107 25.5648 14.0107 22.8945C14.0108 18.4947 17.7277 13.2159 25.0918 13.2158C31.0092 13.2158 34.9061 17.4983 34.9062 22.0918C34.9062 28.1728 31.5213 32.7119 26.5381 32.7119C24.8633 32.7118 23.2918 31.8051 22.752 30.7813C22.7483 30.7956 21.8526 34.3525 21.6592 35.043C21.334 36.2397 20.6898 37.4294 20.1016 38.3633C21.5285 38.7841 23.0083 38.9986 24.4961 39C33.0574 39 39.9997 32.0614 40 23.5039C40 14.9464 33.0652 8.00022 24.5039 8Z" fill="#FD7E11"/>
</g>
<defs>
<clipPath id="clip0_85_57">
<rect width="48" height="48" fill="white"/>
</clipPath>
</defs>
</svg>
