<?xml version="1.0" encoding="utf-8"?>
<!-- Generator: Adobe Illustrator 26.0.0, SVG Export Plug-In . SVG Version: 6.00 Build 0)  -->
<svg version="1.1" id="Capa_1" xmlns="http://www.w3.org/2000/svg" xmlns:xlink="http://www.w3.org/1999/xlink" x="0px" y="0px"
	 viewBox="0 0 48 48" style="enable-background:new 0 0 48 48;" xml:space="preserve">
<style type="text/css">
	.st0{fill:none;}
	.st1{fill:#FD7E11;}
	.st2{fill:#FFFFFF;}
</style>
<rect y="0" class="st0" width="48" height="48"/>
<path class="st1" d="M27.7,48c-2.5,0-4.9,0-7.4,0c-0.2-0.1-0.4-0.1-0.6-0.1c-3.7-0.1-7.4-0.4-11.1-0.8c-3.7-0.4-6.9-3.3-7.5-7
	c-0.5-2.9-0.6-5.9-0.8-8.8c-0.1-1.2-0.1-2.4-0.2-3.6c0-2.5,0-5.1,0-7.6c0.1-0.2,0.1-0.4,0.1-0.6c0.1-3.8,0.4-7.5,0.8-11.2
	c0.4-3.8,3.7-7.2,7.5-7.6c3.3-0.4,6.6-0.6,9.9-0.7c7.1-0.3,14.2-0.1,21.3,0.7c3.9,0.4,7.2,3.7,7.6,7.5c0.4,3.3,0.6,6.5,0.7,9.8
	c0.3,7.1,0.1,14.2-0.7,21.3c-0.4,3.8-3.4,7-7.1,7.6c-2.9,0.5-5.8,0.6-8.8,0.8C30.2,47.9,28.9,47.8,27.7,48z"/>
<path class="st2" d="M20.5,32.4c0,2,0,3.9,0,5.9c0,0.6,0.2,0.8,0.8,0.8c1.3,0,2.6,0,3.9,0c0.8,0,0.9-0.2,0.9-0.9c0-3.9,0-7.7,0-11.6
	c0-0.4,0.1-0.5,0.5-0.5c1.2,0.1,2.5,0,3.8,0c0.6,0,0.8-0.3,0.9-0.8c0.2-1.2,0.3-2.5,0.5-3.8c0.1-0.8-0.2-1.2-1-1.2
	c-1.4,0-2.8,0-4.2,0c-0.3,0-0.4-0.1-0.4-0.4c0.1-1.2,0-2.4,0.1-3.6c0.1-1.4,0.7-2.1,2.2-2.2c0.8-0.1,1.6,0,2.4-0.1
	c0.6,0,0.9-0.3,0.9-0.9c0-1.1,0-2.3,0-3.3c0-0.6-0.3-0.9-0.9-0.9C29.4,9,28.2,9,27,9c-3.6,0.1-6.1,2.5-6.4,6
	c-0.2,1.6-0.1,3.2-0.1,4.8c0,0.4-0.1,0.5-0.5,0.4c-0.9-0.1-1.8,0-2.7,0c-0.7,0-0.9,0.3-0.9,0.9c0,1.3,0,2.6,0,3.9
	c0,0.7,0.3,0.9,0.9,0.9c0.9,0,1.8,0,2.6,0c0.4,0,0.5,0.1,0.5,0.5C20.5,28.5,20.5,30.4,20.5,32.4z"/>
</svg>
