<svg width="2481" height="685" viewBox="0 0 2481 685" fill="none" xmlns="http://www.w3.org/2000/svg">
<g filter="url(#filter0_dd_35_2)">
<path d="M1729.77 426.1C1729.77 449.099 1729.67 471.999 1729.77 494.998C1729.87 511.157 1733.84 526.226 1742.78 539.906C1745.26 543.673 1748.64 546.548 1751.62 549.82C1752.51 550.91 1754.4 551.505 1753.4 553.388C1752.71 554.776 1751.12 554.479 1749.83 554.479C1721.53 554.479 1693.23 554.38 1664.93 554.38C1662.45 554.38 1659.97 554.479 1657.48 554.479C1656.19 554.479 1654.7 554.38 1654.31 552.794C1654.01 551.406 1655.1 550.712 1655.9 550.018C1661.46 545.259 1665.83 539.51 1669.2 532.967C1675.06 521.665 1677.24 509.373 1678.24 496.882C1678.63 492.421 1678.63 487.96 1678.63 483.499C1678.63 448.306 1678.54 413.114 1678.73 377.921C1678.73 368.999 1678.24 359.978 1676.35 351.353C1674.27 341.638 1671.09 331.923 1663.94 324.289C1660.17 320.225 1660.46 319.333 1665.53 317.251C1680.92 310.906 1696.41 304.661 1711.7 298.217C1715.87 296.433 1719.64 293.558 1723.71 291.476C1728.18 289.196 1729.57 290.088 1729.57 295.243C1729.57 307.139 1729.47 319.035 1729.47 330.931C1729.47 332.319 1728.88 334.104 1730.47 334.996C1732.35 336.185 1733.45 334.401 1734.74 333.509C1750.13 322.703 1766.41 313.087 1783.69 305.85C1801.46 298.415 1819.93 292.864 1839.49 294.252C1857.96 295.54 1874.74 301.092 1887.25 315.962C1891.42 320.919 1894.6 326.371 1897.28 332.319C1899.47 337.375 1900.36 337.276 1904.93 334.302C1923.1 322.307 1941.77 311.303 1962.42 303.769C1979.4 297.523 1996.48 292.765 2014.65 294.351C2033.42 296.036 2051.09 300.794 2064 316.16C2068.96 322.207 2072.34 328.949 2075.32 336.185C2082.37 353.038 2081.97 370.585 2081.97 388.132C2082.07 425.803 2081.18 463.474 2082.47 501.145C2083.06 519.088 2088.43 536.635 2103.42 549.126C2104.71 550.216 2106.89 551.307 2105.9 553.488C2104.91 555.569 2102.72 554.578 2100.94 554.578C2071.45 554.578 2042.05 554.677 2012.56 554.677C2010.78 554.677 2008.49 555.272 2007.6 553.388C2006.41 551.009 2009.19 550.513 2010.28 549.423C2021.3 538.716 2027.95 525.829 2029.84 510.463C2035.1 467.836 2031.63 425.01 2031.93 382.283C2032.03 368.801 2029.94 354.823 2022.39 342.827C2016.54 333.41 2008.49 326.569 1997.57 322.703C1975.92 315.07 1956.06 320.919 1936.01 328.552C1925.48 332.617 1915.75 338.168 1905.92 343.521C1903.14 345.008 1901.95 346.991 1902.35 349.866C1909 394.774 1904.03 439.88 1905.52 484.887C1905.82 495.296 1905.92 505.705 1908.11 515.916C1910.79 528.902 1916.55 540.005 1926.57 548.828C1927.87 550.018 1930.15 550.91 1929.45 552.992C1928.66 555.47 1926.08 554.479 1924.19 554.479C1894.9 554.578 1865.61 554.479 1836.32 554.578C1834.33 554.578 1831.95 555.173 1831.05 552.992C1830.16 550.811 1832.64 549.919 1833.83 548.828C1843.17 540.104 1849.42 529.596 1851.9 517.204C1853.99 506.994 1855.68 496.783 1855.68 486.275C1855.58 454.254 1855.58 422.135 1855.68 390.114C1855.68 377.623 1853.89 365.43 1850.81 353.336C1848.23 343.422 1842.97 334.798 1834.33 328.75C1821.42 319.729 1807.12 316.755 1791.53 320.126C1778.62 323.001 1765.82 326.173 1754 332.319C1746.85 336.086 1739.9 340.151 1732.75 344.017C1729.77 345.603 1729.57 348.379 1729.57 351.254C1729.57 376.236 1729.57 401.118 1729.57 426.1C1729.67 426.1 1729.77 426.1 1729.77 426.1Z" fill="url(#paint0_linear_35_2)"/>
<path d="M477.165 201.165C477.86 218.117 478.456 231.401 478.953 244.784C479.052 247.163 480.144 250.732 476.371 251.227C472.995 251.624 472.201 248.353 471.803 245.775C469.42 230.112 463.959 215.44 457.207 201.363C444.994 175.588 426.723 155.266 400.51 142.874C372.111 129.491 341.925 126.12 311.045 127.607C278.972 129.094 249.879 139.503 224.658 159.429C211.551 169.739 200.331 182.032 190.401 195.613C181.365 208.005 173.521 221.19 167.365 235.168C163.592 243.693 160.712 252.714 157.435 261.438C152.471 274.92 151.974 289.196 148.102 302.876C146.016 310.311 147.009 318.341 146.612 326.074C145.719 341.241 145.421 356.706 147.804 371.576C150.187 386.248 151.974 401.118 156.641 415.592C160.811 428.281 165.081 440.871 170.741 452.965C178.982 470.314 189.706 486.076 203.111 499.955C214.729 511.95 227.339 522.756 241.836 531.281C253.354 538.023 265.369 543.574 278.178 547.837C299.526 554.875 321.272 558.048 343.514 557.354C359.104 556.858 374.693 554.776 389.587 550.712C414.808 543.772 437.348 531.48 453.732 510.265C463.562 497.576 468.427 482.706 471.406 467.241C472.399 461.689 475.477 456.832 475.577 450.983C475.577 449.198 477.364 447.711 479.548 448.009C481.733 448.306 482.527 450.091 482.527 451.974C482.527 456.435 482.13 460.896 482.329 465.357C483.222 485.977 480.045 506.201 477.066 526.424C475.974 533.661 470.016 536.833 464.456 540.005C444.1 551.604 421.56 556.462 398.821 560.823C374.991 565.384 350.961 567.267 326.833 566.97C299.526 566.672 272.22 564.095 245.709 557.354C230.318 553.388 215.126 548.333 200.629 541.294C188.118 535.247 176.004 528.605 164.684 520.476C150.584 510.364 137.974 498.468 127.25 484.688C117.32 471.999 109.079 458.418 102.724 443.647C99.5464 436.113 96.8654 428.281 94.2837 420.449C88.7232 403.993 87.1345 386.843 84.95 369.99C82.4676 351.155 81.9711 332.121 85.7444 313.285C87.5317 304.363 87.631 295.243 90.2126 286.42C94.1844 272.64 98.5534 259.059 104.908 246.172C116.526 222.578 132.413 202.354 151.676 184.708C166.372 171.325 182.358 159.727 199.834 150.111C210.558 144.262 221.58 139.107 233.098 134.943C244.815 130.68 256.929 127.508 269.142 124.633C295.158 118.388 321.471 117.694 347.982 118.09C360.792 118.288 373.601 119.181 385.913 121.857C403.687 125.724 421.56 130.085 438.341 137.62C447.973 141.982 457.505 146.343 466.839 151.3C472.201 154.175 475.378 157.843 475.577 164.386C476.073 177.967 477.265 191.35 477.165 201.165Z" fill="url(#paint1_linear_35_2)"/>
<path d="M751.716 441.962C751.716 461.59 751.617 481.318 751.716 500.946C751.815 509.472 752.113 518.097 755.986 526.126C759.858 534.057 768 538.023 776.54 535.643C778.426 535.148 780.313 534.355 782.2 533.958C783.49 533.661 784.98 533.363 785.774 534.751C786.668 536.238 785.377 537.23 784.483 538.122C774.852 548.035 764.326 556.561 751.319 561.815C738.41 566.97 726.197 567.069 714.878 557.949C708.821 553.091 705.544 546.548 704.253 538.915C703.359 533.562 702.466 528.208 701.572 522.756C700.877 518.592 699.288 517.898 696.011 520.476C683.302 530.687 670.493 540.997 656.293 549.126C635.64 561.022 613.398 568.556 589.468 563.996C565.339 559.336 547.168 546.052 537.835 522.062C533.466 510.761 532.671 499.36 535.054 488.059C537.437 476.46 543.792 466.448 552.034 457.823C564.048 445.134 578.546 436.608 594.929 430.363C612.802 423.622 631.172 419.656 650.038 416.98C665.528 414.799 680.819 413.014 696.409 413.114C699.685 413.114 701.274 411.428 701.274 408.256C701.274 389.123 702.267 369.891 699.785 350.857C697.004 329.742 686.281 313.385 665.627 306.049C653.712 301.786 641.002 300.894 627.994 302.777C605.951 305.949 592.149 320.423 579.042 336.185C574.077 342.133 569.212 348.181 562.261 352.047C557.396 354.823 552.133 354.525 547.665 350.659C542.601 346.396 541.211 340.944 543.494 335.591C546.771 327.957 552.729 322.604 559.183 318.143C574.673 307.436 592.149 301.488 610.419 296.829C630.477 291.674 650.435 291.773 670.493 294.053C688.962 296.135 706.934 300.795 722.325 311.997C733.247 319.927 740.794 330.336 746.056 342.927C751.22 355.417 751.22 368.404 751.517 381.391C752.113 401.614 751.815 421.837 751.716 441.962ZM701.473 465.258C701.473 452.866 701.473 440.475 701.473 428.083C701.473 424.613 700.778 421.639 696.21 422.234C684.096 423.82 671.784 424.018 659.769 426.596C646.96 429.372 634.548 433.238 622.831 438.888C613.2 443.548 603.965 449 596.518 456.931C589.667 464.168 585.397 472.594 582.716 482.21C579.439 493.809 580.631 504.813 587.184 514.429C598.305 530.687 614.987 535.743 633.853 534.949C658.081 533.958 678.436 523.152 697.6 509.472C700.678 507.291 701.473 504.515 701.473 500.946C701.373 488.951 701.473 477.055 701.473 465.258Z" fill="url(#paint2_linear_35_2)"/>
<path d="M2364.37 440.078C2364.37 463.176 2364.27 486.374 2364.47 509.472C2364.56 516.411 2365.46 523.45 2369.93 529.101C2375.29 535.941 2381.84 537.725 2390.28 535.148C2392.67 534.454 2395.84 532.075 2397.53 534.751C2399.32 537.626 2395.54 539.113 2393.86 540.898C2384.62 550.315 2374.2 558.048 2361.69 562.509C2340.44 570.043 2322.27 561.517 2316.41 539.311C2314.92 533.562 2314.62 527.614 2314.82 521.566C2314.82 520.178 2315.22 518.394 2313.43 517.7C2311.94 517.204 2311.04 518.493 2310.05 519.286C2296.35 530.191 2282.84 541.393 2267.55 549.919C2247.6 561.022 2226.15 568.159 2203.01 564.194C2179.08 560.13 2160.71 546.945 2151.08 524.342C2147.31 515.42 2143.53 505.308 2145.82 495.098C2148.3 483.598 2152.07 472.495 2159.92 462.978C2172.63 447.612 2188.51 437.6 2206.98 430.462C2225.15 423.424 2243.82 419.557 2263.09 416.781C2278.67 414.501 2294.26 412.915 2309.95 413.014C2313.33 413.014 2314.82 411.527 2314.82 408.256C2314.72 392.692 2316.01 377.029 2314.22 361.762C2312.73 348.379 2310.25 334.698 2301.61 323.199C2290.89 309.023 2275.99 303.57 2259.11 302.083C2235.38 300.001 2215.62 307.833 2200.23 326.074C2194.87 332.418 2189.31 338.466 2184.05 344.81C2181.07 348.379 2177.2 350.56 2173.42 352.741C2166.87 356.508 2156.74 351.056 2156.05 343.521C2155.45 337.177 2156.74 331.625 2161.7 326.867C2172.43 316.458 2184.94 309.221 2198.94 303.967C2213.24 298.614 2227.84 294.351 2243.03 293.161C2261 291.773 2278.87 292.467 2296.75 296.532C2309.46 299.506 2321.67 303.174 2332.39 310.51C2347.39 320.72 2357.12 334.5 2361.39 352.543C2364.37 365.133 2364.56 377.723 2364.56 390.412C2364.37 407.066 2364.27 423.622 2364.37 440.078ZM2314.72 464.564C2314.72 452.668 2314.72 440.772 2314.72 428.876C2314.72 422.63 2314.02 421.837 2307.97 422.333C2302.41 422.73 2296.85 423.721 2291.19 424.117C2267.45 425.604 2245.31 432.445 2225.06 444.44C2205.49 456.039 2192.88 471.9 2193.88 496.585C2194.47 510.265 2201.03 519.385 2211.35 526.325C2228.53 537.923 2247.69 536.635 2266.36 531.777C2282.55 527.514 2296.94 518.89 2310.45 508.877C2313.73 506.399 2314.82 503.92 2314.72 500.252C2314.62 488.356 2314.72 476.46 2314.72 464.564Z" fill="url(#paint3_linear_35_2)"/>
<path d="M1412.72 506.101C1412.72 496.882 1412.72 488.455 1412.72 480.029C1412.72 479.236 1412.62 478.344 1412.72 477.551C1412.82 474.478 1414.01 471.603 1417.29 471.404C1420.77 471.107 1422.45 473.883 1423.05 477.055C1423.55 479.633 1423.94 482.309 1424.44 484.887C1428.31 503.326 1435.46 520.079 1449.36 533.264C1456.21 539.807 1464.36 544.169 1473.29 547.738C1488.29 553.686 1503.68 554.082 1518.67 551.009C1536.94 547.242 1554.42 539.906 1563.06 521.467C1567.03 512.942 1566.33 503.425 1562.46 494.602C1552.63 472.297 1532.08 464.267 1511.22 456.733C1502.58 453.56 1494.05 449.991 1485.51 446.72C1475.38 442.854 1464.85 439.781 1454.92 435.32C1435.46 426.596 1421.36 413.213 1415.11 391.601C1410.94 376.93 1413.12 363.447 1417.69 350.064C1424.94 328.552 1440.43 314.376 1460.38 304.462C1485.8 291.773 1512.81 289.989 1540.22 294.549C1556.5 297.226 1572.09 302.876 1586.49 311.303C1589.17 312.889 1590.16 315.268 1590.46 318.242C1592.25 332.319 1591.85 346.594 1594.63 360.572C1595.13 363.15 1595.82 365.926 1593.94 368.206C1592.55 369.891 1590.46 371.279 1589.37 368.404C1588.08 364.835 1585.99 361.663 1584.7 358.094C1575.77 334.599 1561.96 315.169 1537.24 306.445C1528.5 303.372 1519.07 303.273 1509.73 303.669C1494.34 304.264 1480.74 309.816 1468.33 318.44C1453.53 328.849 1452.44 347.189 1461.18 358.986C1468.92 369.494 1479.25 376.236 1490.87 381.192C1505.27 387.339 1519.66 393.386 1534.26 398.937C1545.78 403.299 1557.69 407.066 1568.62 412.816C1585.4 421.639 1598.21 434.13 1604.16 453.263C1607.94 465.456 1607.74 477.65 1605.75 489.447C1601.98 511.554 1589.37 528.407 1571 541.294C1560.47 548.729 1549.15 554.578 1536.94 557.849C1520.85 562.211 1504.17 563.996 1487.29 562.806C1469.62 561.616 1452.64 557.552 1436.35 551.108C1431.09 549.026 1425.83 546.548 1420.77 543.772C1416.89 541.691 1414.61 538.419 1414.41 533.859C1413.91 524.045 1413.22 514.627 1412.72 506.101Z" fill="url(#paint4_linear_35_2)"/>
<path d="M1169.35 506.101C1169.35 497.179 1169.35 488.257 1169.35 479.335C1169.35 478.046 1169.35 476.659 1169.55 475.37C1169.95 473.387 1170.74 471.504 1173.12 471.206C1175.61 470.909 1176.7 472.693 1177.29 474.676C1179.18 481.318 1181.27 487.96 1182.85 494.701C1186.43 509.571 1193.88 522.161 1204.8 532.669C1225.35 552.595 1250.87 555.768 1277.28 550.414C1291.19 547.639 1304.69 541.294 1313.92 529.2C1321.47 519.187 1323.16 508.381 1318.69 496.188C1312.43 478.939 1298.83 470.116 1283.44 462.978C1269.44 456.435 1254.55 451.974 1240.15 446.125C1228.43 441.268 1215.92 438.294 1204.7 432.147C1173.32 414.898 1163.49 389.321 1171.83 354.823C1177.69 330.535 1194.57 314.673 1216.71 303.868C1242.33 291.278 1269.24 289.691 1296.55 294.351C1312.83 297.127 1328.42 302.876 1342.72 311.402C1344.61 312.492 1345.4 314.078 1345.8 316.16C1348.88 332.517 1349.07 348.974 1349.47 365.529C1349.47 367.115 1349.67 369.197 1347.59 369.693C1345.5 370.188 1344.61 368.404 1344.11 366.917C1341.63 360.275 1339.05 353.732 1335.97 347.288C1326.73 328.056 1313.23 313.385 1292.87 305.949C1286.32 303.57 1279.17 303.273 1272.32 303.174C1252.06 302.876 1233.89 308.428 1219.1 323.001C1208.57 333.41 1209.47 348.974 1217.71 360.077C1225.55 370.585 1236.77 376.632 1248.69 381.589C1262.09 387.14 1275.5 392.593 1288.9 398.045C1299.13 402.209 1309.56 405.976 1319.68 410.338C1335.67 417.079 1347.98 427.984 1356.32 443.449C1366.05 461.689 1364.76 480.822 1359.1 499.261C1353.74 516.709 1342.02 530.191 1326.63 540.897C1300.62 558.94 1271.72 563.897 1240.94 562.112C1224.06 561.121 1208.08 556.66 1192.39 550.811C1186.83 548.729 1181.66 545.854 1176.4 543.078C1172.23 540.997 1170.05 537.725 1170.15 532.768C1170.44 523.846 1170.24 514.924 1170.24 506.002C1169.85 506.101 1169.55 506.101 1169.35 506.101Z" fill="url(#paint5_linear_35_2)"/>
<path d="M903.042 437.699C903.042 457.724 903.141 473.09 902.942 488.456C902.843 496.585 903.538 504.912 905.425 512.545C908.801 526.127 913.765 539.311 924.886 548.927C926.078 549.919 928.064 550.91 927.369 552.794C926.574 554.975 924.39 554.38 922.603 554.38C892.516 554.38 862.331 554.38 832.244 554.38C830.755 554.38 828.967 554.875 828.272 553.19C827.478 551.406 829.365 550.613 830.358 549.72C839.791 541.195 845.153 530.389 848.826 518.295C852.103 507.39 852.302 496.485 852.302 485.482C852.5 449.298 852.401 413.114 852.302 376.93C852.302 368.999 852.5 360.969 851.011 353.236C848.926 342.233 845.649 331.427 837.408 323.199C834.528 320.324 835.223 318.936 838.599 317.548C850.018 312.79 861.338 307.932 873.054 303.769C881.097 300.993 888.743 296.928 895.892 292.071C897.58 290.881 899.467 289.989 901.453 290.881C903.836 291.972 903.042 294.252 903.042 296.135C903.042 311.204 903.042 326.173 903.042 341.241C903.042 343.323 902.049 346.198 904.332 347.09C906.815 348.082 908.205 345.306 909.694 343.62C924.787 327.462 939.88 311.204 958.945 299.605C964.803 296.036 970.959 292.765 978.109 291.972C987.144 290.98 996.18 296.135 999.755 304.462C999.854 304.661 999.854 304.76 999.854 304.958C1001.05 308.626 1005.02 311.6 1002.83 315.962C999.854 321.91 995.783 327.065 989.428 330.039C983.272 332.914 976.818 333.905 970.165 333.211C966.59 332.815 962.916 332.815 959.243 332.22C941.27 329.345 926.972 336.285 914.758 348.676C911.283 352.146 909.496 356.409 908.205 361.167C901.155 388.033 903.737 415.294 903.042 437.699Z" fill="url(#paint6_linear_35_2)"/>
<path d="M1089.32 394.675C1089.32 425.604 1089.22 456.435 1089.32 487.365C1089.32 500.352 1091.5 513.14 1095.57 525.333C1098.55 534.156 1103.72 542.186 1110.87 548.63C1112.16 549.72 1114.44 550.811 1113.55 552.893C1112.75 554.875 1110.57 554.479 1108.68 554.479C1078.69 554.479 1048.81 554.479 1018.82 554.479C1017.33 554.479 1015.64 554.875 1014.85 553.19C1014.05 551.406 1015.74 550.513 1016.73 549.621C1023.78 543.178 1028.45 535.346 1032.22 526.523C1037.59 514.131 1038.38 501.244 1038.58 488.356C1038.98 450.19 1038.68 412.023 1038.68 373.856C1038.68 363.447 1037.98 352.84 1034.81 343.026C1032.62 336.285 1030.24 328.949 1024.28 323.794C1020.61 320.621 1021.1 319.432 1025.57 317.251C1040.66 310.212 1056.75 305.652 1071.74 298.217C1075.32 296.433 1078.6 294.351 1081.97 292.269C1083.66 291.178 1085.25 289.691 1087.33 290.782C1089.62 291.872 1089.12 294.053 1089.12 296.036C1089.32 328.949 1089.32 361.861 1089.32 394.675Z" fill="url(#paint7_linear_35_2)"/>
<path d="M1062.21 192.044C1080.88 192.044 1099.15 209.393 1098.06 228.03C1096.96 245.874 1084.65 262.033 1062.21 262.43C1044.04 262.727 1027.56 246.271 1027.86 227.336C1028.05 208.203 1045.13 192.54 1062.21 192.044Z" fill="url(#paint8_linear_35_2)"/>
</g>
<defs>
<filter id="filter0_dd_35_2" x="48.8" y="87.8" width="2383.4" height="517.4" filterUnits="userSpaceOnUse" color-interpolation-filters="sRGB">
<feFlood flood-opacity="0" result="BackgroundImageFix"/>
<feColorMatrix in="SourceAlpha" type="matrix" values="0 0 0 0 0 0 0 0 0 0 0 0 0 0 0 0 0 0 127 0" result="hardAlpha"/>
<feOffset dy="4"/>
<feGaussianBlur stdDeviation="2"/>
<feComposite in2="hardAlpha" operator="out"/>
<feColorMatrix type="matrix" values="0 0 0 0 0 0 0 0 0 0 0 0 0 0 0 0 0 0 0.25 0"/>
<feBlend mode="normal" in2="BackgroundImageFix" result="effect1_dropShadow_35_2"/>
<feColorMatrix in="SourceAlpha" type="matrix" values="0 0 0 0 0 0 0 0 0 0 0 0 0 0 0 0 0 0 127 0" result="hardAlpha"/>
<feOffset dy="4"/>
<feGaussianBlur stdDeviation="17.1"/>
<feComposite in2="hardAlpha" operator="out"/>
<feColorMatrix type="matrix" values="0 0 0 0 0 0 0 0 0 0 0 0 0 0 0 0 0 0 0.25 0"/>
<feBlend mode="normal" in2="effect1_dropShadow_35_2" result="effect2_dropShadow_35_2"/>
<feBlend mode="normal" in="SourceGraphic" in2="effect2_dropShadow_35_2" result="shape"/>
</filter>
<linearGradient id="paint0_linear_35_2" x1="1240.5" y1="118" x2="1240.5" y2="567" gradientUnits="userSpaceOnUse">
<stop offset="0.0865385" stop-color="#F9530C"/>
<stop offset="0.629808" stop-color="#FD7E11"/>
<stop offset="0.951923" stop-color="#FA4E0B"/>
</linearGradient>
<linearGradient id="paint1_linear_35_2" x1="1240.5" y1="118" x2="1240.5" y2="567" gradientUnits="userSpaceOnUse">
<stop offset="0.0865385" stop-color="#F9530C"/>
<stop offset="0.629808" stop-color="#FD7E11"/>
<stop offset="0.951923" stop-color="#FA4E0B"/>
</linearGradient>
<linearGradient id="paint2_linear_35_2" x1="1240.5" y1="118" x2="1240.5" y2="567" gradientUnits="userSpaceOnUse">
<stop offset="0.0865385" stop-color="#F9530C"/>
<stop offset="0.629808" stop-color="#FD7E11"/>
<stop offset="0.951923" stop-color="#FA4E0B"/>
</linearGradient>
<linearGradient id="paint3_linear_35_2" x1="1240.5" y1="118" x2="1240.5" y2="567" gradientUnits="userSpaceOnUse">
<stop offset="0.0865385" stop-color="#F9530C"/>
<stop offset="0.629808" stop-color="#FD7E11"/>
<stop offset="0.951923" stop-color="#FA4E0B"/>
</linearGradient>
<linearGradient id="paint4_linear_35_2" x1="1240.5" y1="118" x2="1240.5" y2="567" gradientUnits="userSpaceOnUse">
<stop offset="0.0865385" stop-color="#F9530C"/>
<stop offset="0.629808" stop-color="#FD7E11"/>
<stop offset="0.951923" stop-color="#FA4E0B"/>
</linearGradient>
<linearGradient id="paint5_linear_35_2" x1="1240.5" y1="118" x2="1240.5" y2="567" gradientUnits="userSpaceOnUse">
<stop offset="0.0865385" stop-color="#F9530C"/>
<stop offset="0.629808" stop-color="#FD7E11"/>
<stop offset="0.951923" stop-color="#FA4E0B"/>
</linearGradient>
<linearGradient id="paint6_linear_35_2" x1="1240.5" y1="118" x2="1240.5" y2="567" gradientUnits="userSpaceOnUse">
<stop offset="0.0865385" stop-color="#F9530C"/>
<stop offset="0.629808" stop-color="#FD7E11"/>
<stop offset="0.951923" stop-color="#FA4E0B"/>
</linearGradient>
<linearGradient id="paint7_linear_35_2" x1="1240.5" y1="118" x2="1240.5" y2="567" gradientUnits="userSpaceOnUse">
<stop offset="0.0865385" stop-color="#F9530C"/>
<stop offset="0.629808" stop-color="#FD7E11"/>
<stop offset="0.951923" stop-color="#FA4E0B"/>
</linearGradient>
<linearGradient id="paint8_linear_35_2" x1="1240.5" y1="118" x2="1240.5" y2="567" gradientUnits="userSpaceOnUse">
<stop offset="0.0865385" stop-color="#F9530C"/>
<stop offset="0.629808" stop-color="#FD7E11"/>
<stop offset="0.951923" stop-color="#FA4E0B"/>
</linearGradient>
</defs>
</svg>
