<svg width="24" height="24" viewBox="0 0 24 24" fill="none" xmlns="http://www.w3.org/2000/svg">
<path d="M7.10973 0.999943C7.83419 0.995169 8.53584 1.25302 9.08531 1.72553C9.56818 2.1408 9.90531 2.69702 10.0502 3.31244L10.1 3.58002L10.1009 3.58881C10.2176 4.47341 10.4337 5.34264 10.7455 6.17865L10.8138 6.38178C10.9557 6.86073 10.9761 7.36857 10.8714 7.85932C10.7518 8.4202 10.4739 8.93491 10.0707 9.34272L10.0668 9.3476L9.35094 10.0624C10.5268 11.9073 12.0921 13.4714 13.9369 14.6474L14.6566 13.9287C15.0643 13.5255 15.5792 13.2475 16.14 13.1279C16.6999 13.0085 17.2826 13.052 17.8187 13.2529C18.6553 13.565 19.5252 13.7816 20.4105 13.8984L20.4193 13.8994C21.1479 14.0021 21.8137 14.3693 22.2894 14.9306C22.7597 15.4857 23.0104 16.193 22.9984 16.9199L22.9994 19.916C23.0011 20.3337 22.9157 20.7471 22.7484 21.1298C22.581 21.5126 22.3355 21.8562 22.0277 22.1386C21.7199 22.421 21.3569 22.6366 20.9613 22.7705C20.5656 22.9043 20.1459 22.9536 19.7298 22.916C19.7238 22.9154 19.7173 22.9147 19.7113 22.914C16.4789 22.5627 13.3739 21.4584 10.6459 19.6894C8.10936 18.076 5.95841 15.9239 4.34606 13.3867C2.57364 10.648 1.46991 7.53006 1.12535 4.28608C1.12481 4.281 1.12386 4.27553 1.1234 4.27045C1.08593 3.85576 1.13605 3.43753 1.26891 3.04291C1.40184 2.64824 1.6151 2.28507 1.89586 1.97748C2.17665 1.66988 2.51879 1.42408 2.89977 1.2558C3.28066 1.08759 3.69237 1.00035 4.10875 0.999943H7.10973ZM4.11071 2.99994C3.97189 3.00008 3.83437 3.02882 3.70738 3.0849C3.58042 3.141 3.46698 3.2236 3.3734 3.32611C3.27989 3.42856 3.20874 3.54918 3.16442 3.68061C3.1218 3.80714 3.10472 3.94112 3.11461 4.07416L3.18102 4.62299C3.52855 7.17775 4.39814 9.63363 5.7357 11.8378L6.02867 12.3066L6.03356 12.3134C7.49011 14.6056 9.43377 16.5492 11.7259 18.0058L11.7338 18.0107C14.1952 19.6069 16.9963 20.6045 19.9125 20.9238C20.0503 20.9359 20.1896 20.9203 20.3207 20.8759C20.4525 20.8313 20.5736 20.7591 20.6761 20.665C20.7786 20.5709 20.8606 20.4565 20.9164 20.329C20.9722 20.2015 20.9999 20.063 20.9994 19.9238V16.9199C20.9994 16.9117 21.0002 16.9036 21.0004 16.8955C21.0064 16.6502 20.9216 16.4107 20.763 16.2236C20.6064 16.0389 20.3881 15.9167 20.1488 15.8808C19.1141 15.7443 18.0982 15.4917 17.1205 15.1269L17.1175 15.1259C16.9388 15.0588 16.7447 15.0442 16.558 15.0839C16.371 15.1238 16.1988 15.2171 16.0629 15.3515L14.7972 16.6171C14.4789 16.9354 13.9864 17.0018 13.5951 16.7792C10.9352 15.2667 8.73254 13.0641 7.22008 10.4042C6.99774 10.013 7.06492 9.52131 7.38317 9.20307L8.64781 7.93647C8.78223 7.80053 8.87551 7.62929 8.91539 7.44233C8.95527 7.25534 8.94067 7.06074 8.8734 6.88178L8.87242 6.87983C8.50862 5.90488 8.25627 4.89186 8.11949 3.86029L8.10289 3.77045C8.05459 3.56554 7.94235 3.38045 7.7816 3.24213C7.59762 3.0839 7.36215 2.99755 7.11949 2.99994H4.11071Z" fill="#FD7E11"/>
</svg>
