<svg width="24" height="24" viewBox="0 0 24 24" fill="none" xmlns="http://www.w3.org/2000/svg">
<path fill-rule="evenodd" clip-rule="evenodd" d="M11.7344 1.03621C11.937 0.980366 12.1533 0.98922 12.3516 1.06356L20.3516 4.06356C20.7417 4.21001 21 4.58336 21 5.00008V12.0001C21 15.4465 18.7179 18.2007 16.6582 20.003C15.6076 20.9222 14.5616 21.6406 13.7803 22.129C13.3885 22.3738 13.0604 22.5629 12.8281 22.6915C12.712 22.7558 12.6194 22.805 12.5547 22.8389C12.5223 22.8559 12.4966 22.8697 12.4785 22.879L12.4512 22.8927L12.4482 22.8936L12 22.0001L12.4473 22.8946C12.1658 23.0354 11.8342 23.0354 11.5527 22.8946L12 22.0001C11.5576 22.8849 11.5531 22.8947 11.5527 22.8946L11.5518 22.8936L11.5488 22.8927L11.5215 22.879C11.5034 22.8697 11.4777 22.8559 11.4453 22.8389C11.3806 22.805 11.288 22.7558 11.1719 22.6915C10.9396 22.5629 10.6115 22.3738 10.2197 22.129C9.4384 21.6406 8.39239 20.9222 7.3418 20.003C5.28206 18.2007 3.00004 15.4465 3 12.0001V5.00008C3 4.58336 3.25833 4.21001 3.64844 4.06356L11.6484 1.06356L11.7344 1.03621ZM5 5.69344V12.0001C5.00004 14.5535 6.71812 16.7995 8.6582 18.4972C9.60731 19.3276 10.5617 19.9846 11.2803 20.4337C11.4218 20.5221 11.554 20.6018 11.6748 20.6729L12 20.8604V3.06844L5 5.69344Z" fill="#FD7E11"/>
</svg>
