<svg width="24" height="24" viewBox="0 0 24 24" fill="none" xmlns="http://www.w3.org/2000/svg">
<path fill-rule="evenodd" clip-rule="evenodd" d="M23 2C23.5523 2 24 2.44772 24 3V16C24 16.5523 23.5523 17 23 17H21.6631C21.8791 17.4546 22 17.9632 22 18.5C22 20.433 20.433 22 18.5 22C16.567 22 15 20.433 15 18.5C15 17.9632 15.1209 17.4546 15.3369 17H8.66309C8.87907 17.4546 9 17.9632 9 18.5C9 20.433 7.433 22 5.5 22C3.567 22 2 20.433 2 18.5C2 17.9632 2.12093 17.4546 2.33691 17H1C0.447715 17 0 16.5523 0 16V11C0 10.7348 0.105432 10.4805 0.292969 10.293L3.29297 7.29297C3.4805 7.10543 3.73478 7 4 7H7V3C7 2.44772 7.44771 2 8 2H23ZM5.5 17C4.67157 17 4 17.6716 4 18.5C4 19.3284 4.67157 20 5.5 20C6.32843 20 7 19.3284 7 18.5C7 17.6716 6.32843 17 5.5 17ZM18.5 17C17.6716 17 17 17.6716 17 18.5C17 19.3284 17.6716 20 18.5 20C19.3284 20 20 19.3284 20 18.5C20 17.6716 19.3284 17 18.5 17ZM2 11.4141V15H7V9H4.41406L2 11.4141ZM9 15H22V4H9V15Z" fill="#FD7E11"/>
</svg>
